<svg width="412" height="412" viewBox="0 0 412 412" fill="none" xmlns="http://www.w3.org/2000/svg">
  <path d="M204.838 407.211C313.946 407.211 402.395 318.762 402.395 209.654C402.395 100.546 313.946 12.0967 204.838 12.0967C95.7299 12.0967 7.28046 100.546 7.28046 209.654C7.28046 318.762 95.7299 407.211 204.838 407.211Z" fill="#E8E8E8"/>
  <path d="M411.796 197.557C410.787 169.576 405.201 144.095 394.957 121.152C383.592 95.6989 368.402 73.9694 349.386 55.9448C330.361 37.9109 308.502 24.0822 283.809 14.4493C259.106 4.81642 233.171 0 206.005 0C178.838 0 153.635 4.68678 128.942 14.0788C104.239 23.4524 82.3704 37.0495 63.364 54.8333C44.3391 72.6171 29.0284 94.3466 17.4226 120.04C6.93758 143.243 1.23195 169.103 0.222351 197.557H411.796Z" fill="#EDB321"/>
  <path d="M392.734 206.736C392.734 232.912 388.038 257.365 378.655 280.095C369.263 302.815 356.296 322.442 339.753 339.003C323.192 355.546 303.445 368.643 280.474 378.276C257.503 387.909 232.68 392.725 206.005 392.725C180.811 392.725 156.849 388.279 134.129 379.387C111.399 370.495 91.5216 357.899 74.4788 341.597C57.436 325.295 43.9685 305.899 34.0948 283.429C24.2119 260.94 19.275 236.117 19.275 208.959C19.275 205.097 19.3677 201.299 19.5251 197.557H0.213045C0.101896 200.595 0 203.634 0 206.736C0 248.714 9.51248 285.281 28.5282 316.403C47.5438 347.525 73.849 371.727 107.444 389.02V390.502H9.63287V411.25H402.367V390.502H302.333V389.02C315.171 384.074 328.148 376.294 341.235 365.679C354.323 355.046 366.059 341.967 376.432 326.406C386.806 310.846 395.328 292.932 401.997 272.685C408.666 252.419 412 230.448 412 206.736C412 203.643 411.898 200.595 411.787 197.557H392.521C392.651 200.595 392.725 203.652 392.725 206.736H392.734Z" fill="#0C1840"/>
</svg>
