<svg width="38" height="46" viewBox="0 0 38 46" fill="none" xmlns="http://www.w3.org/2000/svg">
  <path d="M16.4983 18.0733V14.9785H16.4315C14.9843 17.1716 12.435 18.4908 9.56839 18.4908C4.2861 18.4908 0.100342 14.4943 0.100342 9.212C0.100342 3.92971 4.41412 0 9.56839 0C12.5018 0 15.0121 1.31918 16.4315 3.54565H16.4983V0.45086H18.7526V18.0678H16.4983V18.0733ZM16.6263 9.27879C16.6263 5.34908 13.5315 2.03165 9.54056 2.03165C5.54963 2.03165 2.36022 5.12644 2.36022 9.31219C2.36022 13.4979 5.4216 16.4647 9.57396 16.4647C13.5037 16.4647 16.6263 13.2419 16.6263 9.28436V9.27879Z" fill="#0C1840"/>
  <path d="M25.2477 45.3309L28.3536 38.4622L21.3848 21.1626H23.806L29.4947 35.4231L35.5785 21.1626H37.9997L27.63 45.3309H25.2421H25.2477Z" fill="#0C1840"/>
  <path d="M8.49954 27.6805H4.64775V27.5525C4.64775 24.6358 5.79995 23.3166 8.49954 23.1552V21.0735C4.45851 21.324 2.39346 23.094 2.39346 27.6805H0V29.7122H2.39346V45.303H4.64775V29.7122H8.49954V27.6805Z" fill="#0C1840"/>
  <path d="M18.7588 27.6805H14.907V27.5525C14.907 24.6358 16.0592 23.3166 18.7588 23.1552V21.0735C14.7178 21.324 12.6527 23.094 12.6527 27.6805H10.2593V29.7122H12.6527V45.303H14.907V29.7122H18.7588V27.6805Z" fill="#0C1840"/>
  <path d="M28.1313 0.0667725C25.7768 0.345081 24.5856 1.32472 23.8787 3.00014H23.8119V0.456402H21.5576V18.0733H23.8119V7.67015C23.8119 5.03735 25.3148 3.0224 28.1313 2.48805V0.0667725Z" fill="#0C1840"/>
</svg>
