<svg width="474" height="474" viewBox="0 0 474 474" fill="none" xmlns="http://www.w3.org/2000/svg">
<path d="M235.838 438.211C344.946 438.211 433.395 349.762 433.395 240.654C433.395 131.546 344.946 43.0967 235.838 43.0967C126.73 43.0967 38.2805 131.546 38.2805 240.654C38.2805 349.762 126.73 438.211 235.838 438.211Z" fill="#E8E8E8"/>
<path d="M442.796 228.557C441.787 200.576 436.202 175.095 425.957 152.152C414.592 126.699 399.402 104.969 380.386 86.9448C361.361 68.9109 339.502 55.0822 314.809 45.4493C290.106 35.8164 264.171 31 237.005 31C209.838 31 184.635 35.6868 159.942 45.0788C135.239 54.4524 113.37 68.0495 94.3641 85.8333C75.3391 103.617 60.0284 125.347 48.4227 151.04C37.9376 174.243 32.232 200.103 31.2224 228.557H442.796Z" fill="#EDB321"/>
<path d="M423.734 237.736C423.734 263.912 419.038 288.365 409.655 311.095C400.263 333.815 387.296 353.442 370.753 370.003C354.192 386.546 334.445 399.643 311.474 409.276C288.503 418.909 263.68 423.725 237.005 423.725C211.811 423.725 187.849 419.279 165.129 410.387C142.399 401.495 122.522 388.899 105.479 372.597C88.436 356.295 74.9685 336.899 65.0948 314.429C55.2119 291.94 50.275 267.117 50.275 239.959C50.275 236.097 50.3677 232.299 50.5251 228.557H31.213C31.1019 231.595 31 234.634 31 237.736C31 279.714 40.5125 316.281 59.5282 347.403C78.5438 378.525 104.849 402.727 138.444 420.02V421.502H40.6329V442.25H433.367V421.502H333.333V420.02C346.171 415.074 359.148 407.294 372.235 396.679C385.323 386.046 397.059 372.967 407.432 357.406C417.806 341.846 426.328 323.932 432.997 303.685C439.666 283.419 443 261.448 443 237.736C443 234.643 442.898 231.595 442.787 228.557H423.521C423.651 231.595 423.725 234.652 423.725 237.736H423.734Z" fill="#0C1840"/>
</svg>
