<svg width="220" height="220" viewBox="0 0 220 220" fill="none" xmlns="http://www.w3.org/2000/svg">
<g clip-path="url(#clip0_81_2537)">
<path d="M182.58 33.7838L186.191 29.9735L182.58 33.7838C192.183 42.8863 199.889 53.888 205.683 66.8635C210.174 76.9232 212.918 88.0208 213.89 100.19H5.67479C6.65399 87.7804 9.46078 76.4902 14.069 66.2926L14.0694 66.2918C19.9925 53.1787 27.7608 42.1825 37.3525 33.2165L37.3544 33.2148C46.9769 24.2112 58.0431 17.3273 70.5769 12.5713L70.5807 12.5698C83.1423 7.79206 95.9406 5.41003 109.782 5.41003C123.623 5.41003 136.795 7.86089 149.336 12.7512C161.871 17.641 172.94 24.6461 182.58 33.7838Z" stroke="#CECECE" stroke-width="10.5"/>
<path d="M209.292 110.332C209.292 124.281 206.789 137.312 201.789 149.425C196.784 161.533 189.873 171.992 181.058 180.818C172.232 189.634 161.709 196.613 149.467 201.747C137.226 206.88 123.997 209.447 109.782 209.447C96.3558 209.447 83.5863 207.077 71.4783 202.339C59.3653 197.6 48.7727 190.887 39.6904 182.2C30.6082 173.513 23.4312 163.177 18.1694 151.202C12.9027 139.217 10.2718 125.989 10.2718 111.516C10.2718 109.458 10.3212 107.434 10.4051 105.44H0.113534C0.0543015 107.059 0 108.678 0 110.332C0 132.702 5.06929 152.189 15.2029 168.774C25.3365 185.359 39.3548 198.257 57.2577 207.472V208.262H5.13344V219.319H214.425V208.262H161.116V207.472C167.957 204.837 174.873 200.69 181.847 195.034C188.822 189.367 195.076 182.397 200.604 174.105C206.133 165.812 210.674 156.266 214.228 145.476C217.782 134.676 219.558 122.968 219.558 110.332C219.558 108.683 219.504 107.059 219.445 105.44H209.178C209.247 107.059 209.287 108.688 209.287 110.332H209.292Z" fill="#CECECE"/>
</g>
<defs>
<clipPath id="clip0_81_2537">
<rect width="219.56" height="219.16" fill="white" transform="translate(0 0.160034)"/>
</clipPath>
</defs>
</svg>
